<?xml version="1.0" encoding="utf-8"?>
<svg version="1.1" id="Layer_1" x="0px" y="0px" viewBox="0 0 264 280" style="enable-background:new 0 0 264 280;" xmlns="http://www.w3.org/2000/svg">
  <style type="text/css">
	.st0{fill-rule:evenodd;clip-rule:evenodd;fill:#E6E6E6;}
	.st1{filter:url(#Adobe_OpacityMaskFilter);}
	.st2{fill-rule:evenodd;clip-rule:evenodd;fill:#FFFFFF;}
	.st3{mask:url(#mask-2_1_);}
	.st4{fill-rule:evenodd;clip-rule:evenodd;fill:#FFE194;}
	.st5{filter:url(#Adobe_OpacityMaskFilter_1_);}
	.st6{mask:url(#mask-4_1_);}
	.st7{fill-rule:evenodd;clip-rule:evenodd;fill:#D0C6AC;}
	.st8{filter:url(#Adobe_OpacityMaskFilter_2_);}
	.st9{mask:url(#mask-6_1_);}
	.st10{fill-rule:evenodd;clip-rule:evenodd;fill:#C68B59;}
	.st11{filter:url(#Adobe_OpacityMaskFilter_3_);}
	.st12{mask:url(#mask-6_2_);fill-rule:evenodd;clip-rule:evenodd;fill-opacity:0.1;}
	.st13{filter:url(#Adobe_OpacityMaskFilter_4_);}
	.st14{mask:url(#react-mask-952_1_);}
	.st15{filter:url(#Adobe_OpacityMaskFilter_5_);}
	.st16{opacity:0.6;mask:url(#react-mask-952_2_);}
	.st17{fill-rule:evenodd;clip-rule:evenodd;fill-opacity:0.16;}
	.st18{fill-rule:evenodd;clip-rule:evenodd;fill-opacity:0.7;}
	.st19{filter:url(#Adobe_OpacityMaskFilter_6_);}
	.st20{mask:url(#react-mask-934_1_);fill-rule:evenodd;clip-rule:evenodd;fill:#FFFFFF;}
	.st21{filter:url(#Adobe_OpacityMaskFilter_7_);}
	.st22{mask:url(#react-mask-934_2_);}
	.st23{fill-rule:evenodd;clip-rule:evenodd;fill:#FF4F6D;}
	.st24{fill-rule:evenodd;clip-rule:evenodd;fill-opacity:0.6;}
	.st25{filter:url(#Adobe_OpacityMaskFilter_8_);}
	.st26{mask:url(#react-mask-925_1_);}
	.st27{fill-rule:evenodd;clip-rule:evenodd;fill:#28354B;}
	.st28{filter:url(#Adobe_OpacityMaskFilter_9_);}
	.st29{mask:url(#react-mask-924_1_);}
	.st30{fill-rule:evenodd;clip-rule:evenodd;fill:#343A40;}
</style>
  <desc>Created with getavataaars.com</desc>
  <g transform="matrix(1.371, 0, 0, 1.442992, 10.319483, -131.982559)" style="">
    <g id="women_7" transform="matrix(1.619739, 0, 0, 1.473322, -33.347992, 68.373932)" style="">
      <rect style="fill: rgb(251, 227, 148);" width="117.69" height="111.588" rx="72.5" ry="72.5" x="15.689" y="33.702"/>
      <g>
        <path style="" d="M44.388,101.531H97.63c5.85-1.428,11.301-5.104,11.301-8.182c0.002-6.799-3.691-7.704-1.156-13.565 c2.533-5.861,2.715-14.082-3.111-20.508c-7.186-7.92-1.621-9.573-7.031-20.523C91.39,26.117,82.3,23.376,73.593,26.141 c0,0-10.773-2.535-19.961,4.434c-9.188,6.97-4.309,16.888-13.18,24.809c-8.869,7.919-7.604,15.046-2.693,23.759 C42.507,87.569,31.593,94.262,44.388,101.531z"/>
        <g>
          <g>
            <g>
              <path style="fill:#F1C9A5;" d="M109.374,115.394c-4.963-9.396-36.875-15.291-36.875-15.291s-31.91,5.896-36.873,15.291 C31.956,128.433,29.544,145,29.544,145h42.955l42.795-0.094C115.294,144.906,114.038,127.236,109.374,115.394z"/>
              <path style="fill: rgb(241, 201, 165);" d="M72.499,100.103c0,0,31.912,5.896,36.875,15.291c4.664,11.842,6.42,29.606,6.42,29.606H72.499 V100.103z"/>
              <rect x="63.811" y="81" style="fill:#F1C9A5;" width="17.375" height="29.077"/>
              <rect x="72.499" y="81" style="fill: rgb(241, 201, 165);" width="8.688" height="29.077"/>
              <path style="opacity:0.1;fill:#DDAC8C;enable-background:new    ;" d="M63.812,94.475c1.563,4.485,7.869,7.056,12.5,7.056 c1.676,0,3.307-0.28,4.875-0.794V81H63.812V94.475z"/>
              <path style="fill:#F1C9A5;" d="M94.837,62.653c0-18.162-10-28.489-22.338-28.489c-12.336,0-22.336,10.328-22.336,28.489 c0,18.162,10,32.886,22.336,32.886C84.837,95.539,94.837,80.815,94.837,62.653z"/>
              <path style="fill:#E4B692;" d="M91.437,75.245c-4.049-0.451-6.783-5.088-6.098-10.352c0.678-5.269,4.512-9.18,8.564-8.732 c4.047,0.449,6.775,5.083,6.092,10.353C99.317,71.782,95.485,75.689,91.437,75.245z"/>
              <path style="fill:#F1C9A5;" d="M45.159,66.513c-0.684-5.269,2.047-9.904,6.092-10.353c4.053-0.448,7.889,3.463,8.568,8.732 c0.684,5.264-2.053,9.901-6.1,10.352C49.669,75.689,45.839,71.782,45.159,66.513z"/>
              <path style="fill: rgb(241, 201, 165);" d="M94.837,62.653c0-18.162-10-28.489-22.338-28.489v61.375 C84.837,95.539,94.837,80.815,94.837,62.653z"/>
            </g>
            <path style="" d="M72.444,43.852c0,0,0.537,8.154,8.742,8.864c8.205,0.709,9.27,6.721,7.674,12.136 c-1.596,5.415-2.307,8.43,2.127,12.685c4.432,4.254-0.531,20.685-0.531,20.685l16.311-7.762c0,0-3.48-13.193-1.596-20.547 c1.885-7.353-6.561-12.586-8.688-17.905S83.674,27.5,75.032,28.958c-8.645,1.457-7.774,10.64-7.774,10.64L72.444,43.852z"/>
          </g>
        </g>
        <path style="fill: rgb(50, 49, 46);" d="M 109.864 116.556 C 106.536 110.34 91.261 105.605 81.301 103.146 L 81.301 98.26 L 63.695 98.26 L 63.695 103.068 C 53.734 105.527 38.46 110.34 35.134 116.556 C 31.415 129.595 28.306 146.162 28.306 146.162 L 72.498 146.162 L 116.692 146.162 C 116.692 146.162 114.591 128.398 109.864 116.556 Z"/>
        <path style="" d="M46.306,101.531h4.588C48.575,93.671,57.2,89.328,58.19,81c1.244-10.484-8.027-18.348,2.658-23.497 c6.781-3.267,11.596-13.651,11.596-13.651l1.148-14.895l-17.1,3.46l-9.563,20.476c0,0-6.646,18.083-6.381,18.753 C40.815,72.316,46.306,101.531,46.306,101.531z"/>
      </g>
    </g>
    <g transform="matrix(0.004471, 0, 0, -0.003744, 55.391361, 180.534256)" fill="#000000" stroke="none" style="">
      <path d="M2725 5579 c-607 -42 -1171 -235 -1745 -597 -235 -149 -451 -242 -645 -277 -179 -33 -200 -45 -249 -134 -51 -95 -74 -213 -83 -431 -9 -220 9 -263 141 -347 110 -71 187 -156 240 -265 38 -77 51 -123 81 -273 146 -721 368 -1210 709 -1563 140 -145 316 -278 559 -421 784 -461 1572 -496 2444 -109 820 363 1294 960 1579 1988 58 207 97 293 166 366 113 120 282 163 588 151 246 -10 369 -56 488 -181 88 -93 144 -202 252 -491 98 -262 169 -413 277 -595 454 -761 1183 -1339 1915 -1519 201 -50 322 -64 533 -64 344 1 633 65 959 213 500 228 824 537 1063 1015 108 215 182 436 253 750 79 351 137 524 213 633 52 75 93 106 165 127 70 21 133 84 158 157 32 99 -3 419 -62 547 -61 134 -145 207 -339 291 -183 79 -381 184 -580 309 -497 310 -920 459 -1530 538 -199 25 -692 26 -851 0 -636 -102 -1164 -380 -1759 -927 -193 -178 -299 -182 -625 -25 -274 131 -390 161 -600 152 -185 -8 -314 -49 -491 -158 -112 -69 -176 -87 -247 -69 -76 19 -123 53 -284 206 -385 368 -741 624 -1047 754 -108 46 -424 134 -623 174 -367 73 -697 97 -1023 75z m608 -370 c640 -79 1217 -436 1552 -959 117 -182 222 -445 266 -669 30 -150 37 -425 15 -586 -88 -659 -513 -1228 -1143 -1531 -695 -334 -1547 -282 -2188 134 -769 498 -1101 1395 -824 2227 284 854 1147 1430 2097 1399 79 -3 180 -9 225 -15z m6746 -69 c398 -27 761 -145 1073 -349 469 -307 773 -743 886 -1271 24 -116 26 -143 26 -365 0 -222 -2 -249 -26 -365 -181 -846 -870 -1467 -1783 -1606 -152 -23 -469 -23 -629 0 -787 114 -1442 618 -1701 1311 -211 564 -140 1192 192 1695 273 413 672 707 1169 860 172 53 342 80 629 98 11 1 85 -3 164 -8z"/>
    </g>
    <g transform="matrix(0.521401, 0, 0, 0.499394, 48.580471, 111.159157)" style="">
      <g transform="matrix(1, 0, 0, 1, -879.335693, -1094.125854)">
        <g transform="translate(825.000000, 1100.000000)">
          <g id="Mask"/>
          <defs>
            <filter id="Adobe_OpacityMaskFilter_1_" filterUnits="userSpaceOnUse" x="-1" y="0" width="265" height="280">
              <feColorMatrix type="matrix" values="1 0 0 0 0  0 1 0 0 0  0 0 1 0 0  0 0 0 1 0"/>
            </filter>
          </defs>
          <mask maskUnits="userSpaceOnUse" x="-1" y="0" width="265" height="280" id="mask-4_1_">
            <g class="st5">
              <path id="path-3_1_" class="st2" d="M12,160c0,66.3,53.7,120,120,120s120-53.7,120-120h12V0H0v160H12z"/>
            </g>
          </mask>
          <g id="Avataaar" class="st6" transform="matrix(1, 0, 0, 1, -7.342667, -3.916083)">
            <g id="Face" transform="translate(76.000000, 82.000000)">
              <g transform="translate(2.000000, 52.000000)">
                <g id="Mouth">
                  <path class="st18" d="M35.1,15.1C36.2,24.6,44.2,32,54,32c9.8,0,17.9-7.4,18.9-17c0.1-0.8-0.8-2-1.8-2c-14.9,0-26.3,0-34,0 C36,13,35,14.2,35.1,15.1z"/>
                </g>
                <defs>
                  <filter id="Adobe_OpacityMaskFilter_6_" filterUnits="userSpaceOnUse" x="39" y="2" width="31" height="16">
                    <feColorMatrix type="matrix" values="1 0 0 0 0  0 1 0 0 0  0 0 1 0 0  0 0 0 1 0"/>
                  </filter>
                </defs>
                <mask maskUnits="userSpaceOnUse" x="39" y="2" width="31" height="16" id="react-mask-934_1_">
                  <g class="st19">
                    <path id="react-path-933_1_" class="st2" d="M35.1,15.1C36.2,24.6,44.2,32,54,32c9.8,0,17.9-7.4,18.9-17 c0.1-0.8-0.8-2-1.8-2c-14.9,0-26.3,0-34,0C36,13,35,14.2,35.1,15.1z"/>
                  </g>
                </mask>
                <path id="Teeth" class="st20" d="M44,2h21c2.8,0,5,2.2,5,5v6c0,2.8-2.2,5-5,5H44c-2.8,0-5-2.2-5-5V7C39,4.2,41.2,2,44,2z"/>
                <defs>
                  <filter id="Adobe_OpacityMaskFilter_7_" filterUnits="userSpaceOnUse" x="38" y="24" width="32" height="22">
                    <feColorMatrix type="matrix" values="1 0 0 0 0  0 1 0 0 0  0 0 1 0 0  0 0 0 1 0"/>
                  </filter>
                </defs>
                <mask maskUnits="userSpaceOnUse" x="38" y="24" width="32" height="22" id="react-mask-934_2_">
                  <g class="st21">
                    <path id="react-path-933_2_" class="st2" d="M35.1,15.1C36.2,24.6,44.2,32,54,32c9.8,0,17.9-7.4,18.9-17 c0.1-0.8-0.8-2-1.8-2c-14.9,0-26.3,0-34,0C36,13,35,14.2,35.1,15.1z"/>
                  </g>
                </mask>
                <g id="Tongue" class="st22">
                  <g transform="translate(38.000000, 24.000000)">
                    <circle class="st23" cx="11" cy="11" r="11"/>
                    <circle class="st23" cx="21" cy="11" r="11"/>
                  </g>
                </g>
              </g>
              <g transform="translate(28.000000, 40.000000)">
                <path id="Nose" class="st17" d="M16,8c0,4.4,5.4,8,12,8l0,0c6.6,0,12-3.6,12-8"/>
              </g>
              <g transform="translate(0.000000, 8.000000)">
                <path id="Squint" class="st24" d="M16.2,22.4C18,18.6,22.2,16,27,16c4.8,0,9,2.6,10.8,6.4c0.6,1.1-0.2,2-1,1.4 c-2.5-2.1-5.9-3.4-9.8-3.4c-3.7,0-7.1,1.2-9.6,3.2C16.5,24.3,15.6,23.6,16.2,22.4z"/>
                <path class="st24" d="M74.2,22.4C76,18.6,80.2,16,85,16c4.8,0,9,2.6,10.8,6.4c0.6,1.1-0.2,2-1,1.4c-2.5-2.1-5.9-3.4-9.8-3.4 c-3.7,0-7.1,1.2-9.6,3.2C74.5,24.3,73.6,23.6,74.2,22.4z"/>
              </g>
              <g>
                <path id="Eyebrow" class="st24" d="M26.5,6.1c-5.8,0.3-15.2,4.5-15,10.3c0,0.2,0.3,0.3,0.4,0.1c2.8-3,22.3-5.9,29.2-4.4 c0.6,0.1,1.1-0.5,0.7-0.9C38.5,7.5,31.7,5.9,26.5,6.1"/>
                <path class="st24" d="M86.5,6.1c5.8,0.3,15.2,4.5,15,10.3c0,0.2-0.3,0.3-0.4,0.1c-2.8-3-22.3-5.9-29.2-4.4 c-0.6,0.1-1.1-0.5-0.7-0.9C74.5,7.5,81.3,5.9,86.5,6.1"/>
              </g>
            </g>
          </g>
        </g>
      </g>
    </g>
  </g>
</svg>